<svg xmlns="http://www.w3.org/2000/svg" xmlns:xlink="http://www.w3.org/1999/xlink" fill="none" version="1.1" width="16" height="16" viewBox="0 0 16 16"><defs><clipPath id="master_svg0_4_295"><rect x="0" y="0" width="16" height="16" rx="0"/></clipPath></defs><g clip-path="url(#master_svg0_4_295)"><g transform="matrix(1,0,0,-1,0,30.68749237060547)"><g><path d="M7.999999471058845,29.343746185302734Q8.704979471058845,29.312546185302736,9.072799471058845,28.718746185302734L15.693459471058846,17.218746185302734Q15.999959471058846,16.593746185302734,15.693459471058846,15.968746185302734Q15.325659471058845,15.374996185302734,14.620659471058845,15.343746185302734L1.3793094710588456,15.343746185302734Q0.6743324710588455,15.374996185302734,0.3065164710588455,15.968746185302734Q0.0000024710588455156834,16.593746185302734,0.3065164710588455,17.218746185302734L6.957859471058845,28.718746185302734Q7.325669471058846,29.312546185302736,7.999999471058845,29.343746185302734ZM7.999999471058845,25.343746185302734Q7.325669471058846,25.281246185302734,7.264369471058846,24.593746185302734L7.264369471058846,21.093746185302734Q7.325669471058846,20.406246185302734,7.999999471058845,20.343746185302734Q8.674329471058845,20.406246185302734,8.735639471058846,21.093746185302734L8.735639471058846,24.593746185302734Q8.674329471058845,25.281246185302734,7.999999471058845,25.343746185302734ZM8.980849471058846,18.343746185302734Q8.980849471058846,18.781246185302734,8.704979471058845,19.062496185302734Q8.429119471058845,19.343746185302734,7.999999471058845,19.343746185302734Q7.570879471058846,19.343746185302734,7.295019471058845,19.062496185302734Q7.019159471058845,18.781246185302734,7.019159471058845,18.343746185302734Q7.019159471058845,17.906246185302734,7.295019471058845,17.624996185302734Q7.570879471058846,17.343746185302734,7.999999471058845,17.343746185302734Q8.429119471058845,17.343746185302734,8.704979471058845,17.624996185302734Q8.980849471058846,17.906246185302734,8.980849471058846,18.343746185302734Z" fill="#F87171" fill-opacity="1" style="mix-blend-mode:passthrough"/></g></g></g></svg>