<svg xmlns="http://www.w3.org/2000/svg" xmlns:xlink="http://www.w3.org/1999/xlink" fill="none" version="1.1" width="15" height="20" viewBox="0 0 15 20"><defs><clipPath id="master_svg0_4_019"><rect x="0" y="0" width="15" height="20" rx="0"/></clipPath></defs><g clip-path="url(#master_svg0_4_019)"><g transform="matrix(1,0,0,-1,0,38.359371185302734)"><g><path d="M8.68217,36.67968559265137Q6.24031,36.64058559265136,4.30233,35.46878559265137Q2.32558,34.335885592651366,1.16279,32.343785592651365Q0.0387597,30.39058559265137,0,27.929685592651367Q0.0387597,25.468745592651366,1.20155,23.515625592651368Q2.32558,21.523435592651367,4.30233,20.390625592651368Q6.24031,19.218748092651367,8.68217,19.179685592651367Q12.2868,19.257810592651367,14.6899,21.640625592651368Q15,21.992185592651367,14.8062,22.382805592651366Q14.6124,22.773435592651367,14.1473,22.734375592651368Q13.6047,22.617185592651367,12.9845,22.617185592651367Q10.1163,22.695305592651366,8.17829,24.648435592651367Q6.27907,26.562495592651366,6.20155,29.492185592651367Q6.20155,31.445285592651366,7.13178,33.007785592651366Q8.10077,34.570285592651366,9.65116,35.46878559265137Q10.0388,35.70308559265136,9.96124,36.171885592651364Q9.84496,36.56248559265137,9.37984,36.64058559265136Q9.03101,36.67968559265137,8.64341,36.67968559265137L8.68217,36.67968559265137Z" fill="#9CA3AF" fill-opacity="1" style="mix-blend-mode:passthrough"/></g></g></g></svg>