<svg xmlns="http://www.w3.org/2000/svg" xmlns:xlink="http://www.w3.org/1999/xlink" fill="none" version="1.1" width="20" height="20" viewBox="0 0 20 20"><defs><clipPath id="master_svg0_4_024"><rect x="0" y="0" width="20" height="20" rx="0"/></clipPath></defs><g clip-path="url(#master_svg0_4_024)"><g transform="matrix(1,0,0,-1,0,40.86912155151367)"><g><path d="M14.108592848742008,40.40036077575684Q14.379892848742008,40.24416077575684,14.457392848742009,39.93166077575684L15.232592848742009,35.71286077575684L19.41859284874201,34.93166077575684Q19.728692848742007,34.85346077575684,19.883692848742008,34.580060775756834Q19.999992848742007,34.267560775756834,19.806192848742008,33.955060775756834L17.40309284874201,30.439460775756835L19.806192848742008,26.923820775756838Q19.999992848742007,26.611320775756838,19.883692848742008,26.298820775756838Q19.728692848742007,26.025380775756837,19.41859284874201,25.947260775756835L15.232592848742009,25.166010775756835L14.457392848742009,20.947255775756837Q14.379892848742008,20.634755775756837,14.108592848742008,20.478506075756837Q13.798492848742008,20.361318575756837,13.488392848742008,20.556630775756837L10.000022848742008,22.978510775756835L6.511642848742008,20.556630775756837Q6.201572848742008,20.361318575756837,5.9302528487420085,20.478506075756837Q5.620172848742008,20.634755775756837,5.542652848742009,20.947255775756837L4.767462848742008,25.166010775756835L0.5814138487420082,25.947260775756835Q0.2713358487420082,26.025380775756837,0.1162974487420082,26.298820775756838Q0.000018448742008209118,26.611320775756838,0.19381684874200822,26.923820775756838L2.5969128487420083,30.439460775756835L0.19381684874200822,33.955060775756834Q0.000018448742008209118,34.267560775756834,0.1162974487420082,34.54096077575684Q0.2713358487420082,34.85346077575684,0.5814138487420082,34.93166077575684L4.767462848742008,35.71286077575684L5.542652848742009,39.93166077575684Q5.620172848742008,40.24416077575684,5.9302528487420085,40.40036077575684Q6.201572848742008,40.517560775756834,6.511642848742008,40.32226077575683L10.000022848742008,37.90036077575684L13.488392848742008,40.32226077575683Q13.798492848742008,40.517560775756834,14.108592848742008,40.40036077575684ZM6.279092848742009,30.439460775756835Q6.279092848742009,31.455060775756834,6.782962848742009,32.314460775756835Q7.286842848742008,33.173860775756836,8.139552848742008,33.68166077575684Q9.031022848742008,34.189460775756835,10.000022848742008,34.189460775756835Q10.968992848742008,34.189460775756835,11.860492848742009,33.68166077575684Q12.713192848742008,33.173860775756836,13.217092848742007,32.314460775756835Q13.720992848742009,31.455060775756834,13.720992848742009,30.439460775756835Q13.720992848742009,29.423820775756838,13.217092848742007,28.564440775756836Q12.713192848742008,27.705070775756838,11.860492848742009,27.197260775756835Q10.968992848742008,26.689440775756836,10.000022848742008,26.689440775756836Q9.031022848742008,26.689440775756836,8.139552848742008,27.197260775756835Q7.286842848742008,27.705070775756838,6.782962848742009,28.564440775756836Q6.279092848742009,29.423820775756838,6.279092848742009,30.439460775756835ZM14.961292848742008,30.439460775756835Q14.961292848742008,31.806660775756836,14.302392848742008,32.939460775756835Q13.643392848742009,34.07226077575684,12.480592848742008,34.77536077575684Q11.317892848742009,35.439460775756835,10.000022848742008,35.439460775756835Q8.682192848742009,35.439460775756835,7.519402848742009,34.77536077575684Q6.356602848742008,34.07226077575684,5.697692848742008,32.939460775756835Q5.0387828487420085,31.806660775756836,5.0387828487420085,30.439460775756835Q5.0387828487420085,29.072250775756835,5.697692848742008,27.939440775756836Q6.356602848742008,26.806630775756837,7.519402848742009,26.103510775756835Q8.682192848742009,25.439440775756836,10.000022848742008,25.439440775756836Q11.317892848742009,25.439440775756836,12.480592848742008,26.103510775756835Q13.643392848742009,26.806630775756837,14.302392848742008,27.939440775756836Q14.961292848742008,29.072250775756835,14.961292848742008,30.439460775756835Z" fill="#000000" fill-opacity="1" style="mix-blend-mode:passthrough"/></g></g></g></svg>