<svg xmlns="http://www.w3.org/2000/svg" xmlns:xlink="http://www.w3.org/1999/xlink" fill="none" version="1.1" width="20" height="20" viewBox="0 0 20 20"><defs><clipPath id="master_svg0_3_379"><rect x="0" y="0" width="20" height="20" rx="0"/></clipPath></defs><g clip-path="url(#master_svg0_3_379)"><g transform="matrix(1,0,0,-1,0,40.625)"><g><path d="M18.125,30.3125Q18.125,32.5391,17.0312,34.375Q15.9766,36.2109,14.0625,37.3437Q12.1484,38.4375,10,38.4375Q7.85156,38.4375,5.9375,37.3437Q4.02344,36.2109,2.96875,34.375Q1.875,32.5391,1.875,30.3125Q1.875,28.08594,2.96875,26.25Q4.02344,24.41406,5.9375,23.28125Q7.85156,22.1875,10,22.1875Q12.1484,22.1875,14.0625,23.28125Q15.9766,24.41406,17.0312,26.25Q18.125,28.08594,18.125,30.3125ZM0,30.3125Q0.0390625,33.0469,1.32812,35.3125Q2.65625,37.5781,5,38.9844Q7.38281,40.3125,10,40.3125Q12.6172,40.3125,15,38.9844Q17.3438,37.5781,18.6719,35.3125Q19.9609,33.0469,20,30.3125Q19.9609,27.57812,18.6719,25.3125Q17.3438,23.04688,15,21.64062Q12.6172,20.3125,10,20.3125Q7.38281,20.3125,5,21.64062Q2.65625,23.04688,1.32812,25.3125Q0.0390625,27.57812,0,30.3125ZM6.64062,33.8672Q6.875,34.5313,7.42188,34.9219Q7.96875,35.3125,8.71094,35.3125L10.9766,35.3125Q12.0312,35.2734,12.7344,34.5703Q13.3984,33.9063,13.4375,32.8516Q13.3984,31.4453,12.1875,30.7031L10.9375,30Q10.8594,29.14062,10,29.0625Q9.14062,29.14062,9.0625,30L9.0625,30.5078Q9.0625,31.0547,9.53125,31.3281L11.25,32.3437Q11.5625,32.5,11.5625,32.8516Q11.5234,33.3984,10.9766,33.4375L8.71094,33.4375Q8.47656,33.4375,8.39844,33.2422L8.39844,33.1641Q8.00781,32.3828,7.1875,32.6172Q6.40625,32.9687,6.60156,33.7891L6.64062,33.8672ZM8.75,26.5625Q8.75,27.10938,9.10156,27.46094Q9.45312,27.8125,10,27.8125Q10.5469,27.8125,10.8984,27.46094Q11.25,27.10938,11.25,26.5625Q11.25,26.01562,10.8984,25.66406Q10.5469,25.3125,10,25.3125Q9.45312,25.3125,9.10156,25.66406Q8.75,26.01562,8.75,26.5625Z" fill="#D1D5DB" fill-opacity="1" style="mix-blend-mode:passthrough"/></g></g></g></svg>