<svg xmlns="http://www.w3.org/2000/svg" xmlns:xlink="http://www.w3.org/1999/xlink" fill="none" version="1.1" width="17.5" height="20" viewBox="0 0 17.5 20"><defs><clipPath id="master_svg0_3_384"><rect x="0" y="0" width="17.5" height="20" rx="0"/></clipPath></defs><g clip-path="url(#master_svg0_3_384)"><g transform="matrix(1,0,0,-1,0,40.625)"><g><path d="M11.875,35.3125Q11.8359,37.0703,10.3125,38.0078Q8.75,38.8672,7.1875,38.0078Q5.66406,37.0703,5.625,35.3125Q5.66406,33.5547,7.1875,32.6172Q8.75,31.7578,10.3125,32.6172Q11.8359,33.5547,11.875,35.3125ZM3.75,35.3125Q3.75,36.6797,4.41406,37.8125Q5.07812,38.9453,6.25,39.648399999999995Q7.42188,40.3125,8.75,40.3125Q10.0781,40.3125,11.25,39.648399999999995Q12.4219,38.9453,13.0859,37.8125Q13.75,36.6797,13.75,35.3125Q13.75,33.9453,13.0859,32.8125Q12.4219,31.6797,11.25,30.976599999999998Q10.0781,30.3125,8.75,30.3125Q7.42188,30.3125,6.25,30.976599999999998Q5.07812,31.6797,4.41406,32.8125Q3.75,33.9453,3.75,35.3125ZM1.91406,22.1875L15.5859,22.1875L1.91406,22.1875L15.5859,22.1875Q15.2734,24.10156,13.9062,25.3125Q12.5,26.52344,10.5469,26.5625L6.95312,26.5625Q5,26.52344,3.63281,25.3125Q2.22656,24.10156,1.91406,22.1875ZM0,21.48438Q0.078125,24.41406,2.03125,26.40625Q4.02344,28.35938,6.95312,28.4375L10.5469,28.4375Q13.4766,28.35938,15.4688,26.40625Q17.4219,24.41406,17.5,21.48438Q17.5,20.976562,17.1484,20.664062Q16.8359,20.3125,16.3281,20.3125L1.17188,20.3125Q0.664062,20.3125,0.351562,20.664062Q0,20.976562,0,21.48438Z" fill="#D1D5DB" fill-opacity="1" style="mix-blend-mode:passthrough"/></g></g></g></svg>