<svg xmlns="http://www.w3.org/2000/svg" xmlns:xlink="http://www.w3.org/1999/xlink" fill="none" version="1.1" width="19.0625" height="20" viewBox="0 0 19.0625 20"><defs><clipPath id="master_svg0_3_389"><rect x="0" y="0" width="19.0625" height="20" rx="0"/></clipPath></defs><g clip-path="url(#master_svg0_3_389)"><g transform="matrix(1,0,0,-1,0,40.859375)"><g><path d="M18.906207074737548,33.9062875Q19.06250707473755,33.3593875,18.67190707473755,32.9687875L16.95310707473755,31.406287499999998Q17.031207074737548,30.9374875,17.031207074737548,30.4296875Q17.031207074737548,29.9218775,16.95310707473755,29.4531275L18.67190707473755,27.8906275Q19.06250707473755,27.4999975,18.906207074737548,26.9531275Q18.63280707473755,26.2499975,18.281207074737548,25.5859375L18.08590707473755,25.2734375Q17.69530707473755,24.6484375,17.226607074737547,24.0624975Q16.83590707473755,23.6328075,16.289107074737547,23.7890675L14.101607074737549,24.4921875Q13.32030707473755,23.8671875,12.38280707473755,23.5156275L11.914107074737549,21.2499995Q11.75780707473755,20.7031255,11.171907074737549,20.5859375Q10.390607074737549,20.4296875,9.531247074737548,20.4296875Q8.671877074737548,20.4296875,7.851557074737549,20.5859375Q7.304687074737549,20.7031255,7.148437074737549,21.2499995L6.679687074737549,23.5156275Q5.742187074737549,23.8671875,4.960937074737549,24.4921875L2.773437074737549,23.7890675Q2.226567074737549,23.6328075,1.8359370747375487,24.0624975Q1.3281270747375489,24.6484375,0.9765620747375489,25.2734375L0.7812500747375488,25.5859375Q0.4296870747375488,26.2499975,0.1562499747375488,26.9140675Q7.473754883025041e-8,27.4999975,0.3906250747375488,27.8906275L2.109377074737549,29.4140675Q2.031247074737549,29.9218775,2.031247074737549,30.4296875Q2.031247074737549,30.9374875,2.109377074737549,31.406287499999998L0.3906250747375488,32.9687875Q7.473754883025041e-8,33.3593875,0.1562499747375488,33.9062875Q0.4296870747375488,34.6093875,0.7812500747375488,35.2734875L0.9765620747375489,35.5858875Q1.3281270747375489,36.2108875,1.8359370747375487,36.7968875Q2.226567074737549,37.2265875,2.773437074737549,37.0702875L4.960937074737549,36.3671875Q5.742187074737549,36.9921875,6.679687074737549,37.3827875L7.148437074737549,39.6093875Q7.304687074737549,40.156287500000005,7.890627074737549,40.2734875Q8.671877074737548,40.4296875,9.531247074737548,40.4296875Q10.390607074737549,40.4296875,11.210907074737548,40.2734875Q11.75780707473755,40.156287500000005,11.914107074737549,39.6093875L12.38280707473755,37.3827875Q13.32030707473755,36.9921875,14.101607074737549,36.3671875L16.289107074737547,37.0702875Q16.83590707473755,37.2265875,17.226607074737547,36.7968875Q17.73440707473755,36.2108875,18.12500707473755,35.5858875L18.281207074737548,35.2734875Q18.63280707473755,34.6093875,18.906207074737548,33.9062875ZM9.531247074737548,27.3046875Q11.289107074737549,27.3437475,12.226607074737549,28.8671875Q13.085907074737548,30.4296875,12.226607074737549,31.9921875Q11.289107074737549,33.5155875,9.531247074737548,33.5546875Q7.773437074737549,33.5155875,6.835937074737549,31.9921875Q5.976557074737549,30.4296875,6.835937074737549,28.8671875Q7.773437074737549,27.3437475,9.531247074737548,27.3046875Z" fill="#1DA1F2" fill-opacity="1" style="mix-blend-mode:passthrough"/></g></g></g></svg>